<svg xmlns="http://www.w3.org/2000/svg" viewBox="0 0 1200 520" preserveAspectRatio="xMidYMax meet">
<g fill="#060F1D">

  <!-- GROUND BASE -->
  <rect x="0" y="478" width="1200" height="42"/>

  <!-- FAR LEFT CURTAIN WALL -->
  <rect x="0" y="348" width="122" height="132"/>
  <rect x="4"  y="330" width="14" height="18"/>
  <rect x="32" y="330" width="14" height="18"/>
  <rect x="60" y="330" width="14" height="18"/>
  <rect x="88" y="330" width="14" height="18"/>

  <!-- LEFT SMALL TOWER -->
  <rect x="92" y="225" width="116" height="255"/>
  <polygon points="150,148 86,243 214,243"/>
  <rect x="94"  y="207" width="15" height="18"/>
  <rect x="123" y="207" width="15" height="18"/>
  <rect x="152" y="207" width="15" height="18"/>
  <rect x="181" y="207" width="15" height="18"/>

  <!-- LEFT MID WALL -->
  <rect x="208" y="290" width="108" height="190"/>
  <rect x="210" y="272" width="14" height="18"/>
  <rect x="238" y="272" width="14" height="18"/>
  <rect x="266" y="272" width="14" height="18"/>
  <rect x="294" y="272" width="14" height="18"/>

  <!-- LEFT MAIN FLANKING TOWER -->
  <rect x="288" y="145" width="136" height="335"/>
  <polygon points="356,68 280,163 432,163"/>
  <rect x="290" y="127" width="17" height="18"/>
  <rect x="323" y="127" width="17" height="18"/>
  <rect x="356" y="127" width="17" height="18"/>
  <rect x="389" y="127" width="17" height="18"/>

  <!-- LEFT INNER CONNECTING WALL -->
  <rect x="424" y="210" width="98" height="270"/>
  <rect x="426" y="192" width="14" height="18"/>
  <rect x="454" y="192" width="14" height="18"/>
  <rect x="482" y="192" width="14" height="18"/>
  <rect x="510" y="192" width="14" height="18"/>

  <!-- CENTRAL MAIN TOWER -->
  <rect x="500" y="92" width="200" height="388"/>
  <!-- Tall dramatic central spire -->
  <polygon points="600,8 490,112 710,112"/>
  <rect x="502" y="74" width="18" height="18"/>
  <rect x="538" y="74" width="18" height="18"/>
  <rect x="574" y="74" width="18" height="18"/>
  <rect x="610" y="74" width="18" height="18"/>
  <rect x="646" y="74" width="18" height="18"/>
  <rect x="680" y="74" width="18" height="18"/>
  <!-- Gate arch opening (slightly lighter notch suggestion) -->
  <rect x="560" y="370" width="80" height="110" fill="#0A1828"/>
  <ellipse cx="600" cy="370" rx="40" ry="26" fill="#0A1828"/>

  <!-- RIGHT INNER CONNECTING WALL -->
  <rect x="678" y="210" width="98" height="270"/>
  <rect x="680" y="192" width="14" height="18"/>
  <rect x="708" y="192" width="14" height="18"/>
  <rect x="736" y="192" width="14" height="18"/>
  <rect x="764" y="192" width="14" height="18"/>

  <!-- RIGHT MAIN FLANKING TOWER -->
  <rect x="776" y="145" width="136" height="335"/>
  <polygon points="844,68 768,163 920,163"/>
  <rect x="778" y="127" width="17" height="18"/>
  <rect x="811" y="127" width="17" height="18"/>
  <rect x="844" y="127" width="17" height="18"/>
  <rect x="877" y="127" width="17" height="18"/>

  <!-- RIGHT MID WALL -->
  <rect x="884" y="290" width="108" height="190"/>
  <rect x="886" y="272" width="14" height="18"/>
  <rect x="914" y="272" width="14" height="18"/>
  <rect x="942" y="272" width="14" height="18"/>
  <rect x="970" y="272" width="14" height="18"/>

  <!-- RIGHT SMALL TOWER -->
  <rect x="992" y="225" width="116" height="255"/>
  <polygon points="1050,148 986,243 1114,243"/>
  <rect x="994"  y="207" width="15" height="18"/>
  <rect x="1023" y="207" width="15" height="18"/>
  <rect x="1052" y="207" width="15" height="18"/>
  <rect x="1081" y="207" width="15" height="18"/>

  <!-- FAR RIGHT CURTAIN WALL -->
  <rect x="1078" y="348" width="122" height="132"/>
  <rect x="1082" y="330" width="14" height="18"/>
  <rect x="1110" y="330" width="14" height="18"/>
  <rect x="1138" y="330" width="14" height="18"/>
  <rect x="1166" y="330" width="14" height="18"/>

</g>
</svg>